HIERARCHY
ROOT Hips
{
	OFFSET 0.00000 0.00000 0.00000
	CHANNELS 6 Xposition Yposition Zposition Zrotation Yrotation Xrotation 
	JOINT LHipJoint
	{
		OFFSET 0 0 0
		CHANNELS 3 Zrotation Yrotation Xrotation
		JOINT LeftUpLeg
		{
			OFFSET 3.13874 -1.57224 1.49786
			CHANNELS 3 Zrotation Yrotation Xrotation
			JOINT LeftLeg
			{
				OFFSET 2.10955 -5.79594 0.00000
				CHANNELS 3 Zrotation Yrotation Xrotation
				JOINT LeftFoot
				{
					OFFSET 2.41843 -6.64458 0.00000
					CHANNELS 3 Zrotation Yrotation Xrotation
					JOINT LeftToeBase
					{
						OFFSET 0.04713 -0.12948 1.66229
						CHANNELS 3 Zrotation Yrotation Xrotation
						End Site
						{
							OFFSET 0.00000 -0.00000 0.85167
						}
					}
				}
			}
		}
	}
	JOINT RHipJoint
	{
		OFFSET 0 0 0
		CHANNELS 3 Zrotation Yrotation Xrotation
		JOINT RightUpLeg
		{
			OFFSET -3.13988 -1.57224 1.49786
			CHANNELS 3 Zrotation Yrotation Xrotation
			JOINT RightLeg
			{
				OFFSET -2.15006 -5.90725 0.00000
				CHANNELS 3 Zrotation Yrotation Xrotation
				JOINT RightFoot
				{
					OFFSET -2.34496 -6.44273 0.00000
					CHANNELS 3 Zrotation Yrotation Xrotation
					JOINT RightToeBase
					{
						OFFSET -0.08699 -0.23900 1.55223
						CHANNELS 3 Zrotation Yrotation Xrotation
						End Site
						{
							OFFSET -0.00000 -0.00000 0.80281
						}
					}
				}
			}
		}
	}
	JOINT LowerBack
	{
		OFFSET 0 0 0
		CHANNELS 3 Zrotation Yrotation Xrotation
		JOINT Spine
		{
			OFFSET 0.01292 1.96517 -0.16495
			CHANNELS 3 Zrotation Yrotation Xrotation
			JOINT Spine1
			{
				OFFSET 0.02122 1.88666 0.19706
				CHANNELS 3 Zrotation Yrotation Xrotation
				JOINT Neck
				{
					OFFSET 0 0 0
					CHANNELS 3 Zrotation Yrotation Xrotation
					JOINT Neck1
					{
						OFFSET -0.01683 1.81591 0.07903
						CHANNELS 3 Zrotation Yrotation Xrotation
						JOINT Head
						{
							OFFSET 0.00815 1.74013 -0.47700
							CHANNELS 3 Zrotation Yrotation Xrotation
							End Site
							{
								OFFSET -0.00204 1.83225 -0.16933
							}
						}
					}
				}
				JOINT LeftShoulder
				{
					OFFSET 0 0 0
					CHANNELS 3 Zrotation Yrotation Xrotation
					JOINT LeftArm
					{
						OFFSET 3.38482 1.41533 0.19802
						CHANNELS 3 Zrotation Yrotation Xrotation
						JOINT LeftForeArm
						{
							OFFSET 4.32712 -0.00000 0.00000
							CHANNELS 3 Zrotation Yrotation Xrotation
							JOINT LeftHand
							{
								OFFSET 3.28587 -0.00000 -0.00000
								CHANNELS 3 Zrotation Yrotation Xrotation
								JOINT LeftFingerBase
								{
									OFFSET 0 0 0
									CHANNELS 3 Zrotation Yrotation Xrotation
									JOINT LeftHandIndex1
									{
										OFFSET 0.43316 -0.00000 -0.00000
										CHANNELS 3 Zrotation Yrotation Xrotation
										End Site
										{
											OFFSET 0.34922 -0.00000 -0.00000
										}
									}
								}
								JOINT LThumb
								{
									OFFSET 0 0 0
									CHANNELS 3 Zrotation Yrotation Xrotation
									End Site
									{
										OFFSET 0.35456 -0.00000 0.35456
									}
								}
							}
						}
					}
				}
				JOINT RightShoulder
				{
					OFFSET 0 0 0
					CHANNELS 3 Zrotation Yrotation Xrotation
					JOINT RightArm
					{
						OFFSET -3.09725 1.62858 -0.14144
						CHANNELS 3 Zrotation Yrotation Xrotation
						JOINT RightForeArm
						{
							OFFSET -4.29104 -0.00000 0.00000
							CHANNELS 3 Zrotation Yrotation Xrotation
							JOINT RightHand
							{
								OFFSET -3.22720 -0.00000 -0.00000
								CHANNELS 3 Zrotation Yrotation Xrotation
								JOINT RightFingerBase
								{
									OFFSET 0 0 0
									CHANNELS 3 Zrotation Yrotation Xrotation
									JOINT RightHandIndex1
									{
										OFFSET -0.54362 -0.00000 -0.00000
										CHANNELS 3 Zrotation Yrotation Xrotation
										End Site
										{
											OFFSET -0.43828 -0.00000 -0.00000
										}
									}
								}
								JOINT RThumb
								{
									OFFSET 0 0 0
									CHANNELS 3 Zrotation Yrotation Xrotation
									End Site
									{
										OFFSET -0.44497 -0.00000 0.44497
									}
								}
							}
						}
					}
				}
			}
		}
	}
}
MOTION
Frames: 7
Frame Time: 0.0444444
0.00 0.00 0.00 -6.2281 -4.6388 8.9590 0.0000 0.0000 0.0000 -29.2713 -16.9908 7.0225 0.0823 1.8506 5.0929 3.4467 -18.8907 -34.2317 1.4984 -7.7322 -21.9036 0.0000 0.0000 0.0000 34.2137 17.5421 2.7670 -0.1261 2.2892 -6.3056 6.6480 -40.3528 -15.7868 -8.2451 -16.2966 53.4409 -1.4307 0.3235 4.1051 3.4119 0.6677 -10.8802 4.4829 0.7309 -14.3113 -4.6247 -5.7574 -14.0068 5.5629 -10.2219 40.8436 1.4254 -4.1708 18.2277 -0.0000 0.0000 0.0000 -57.1401 8.2060 26.1893 91.1605 -59.9949 -61.0050 -0.0000 -0.0000 10.5861 41.4838 16.0305 13.7218 -7.1250 0.0000 -0.0000 13.9344 50.4404 1.9004 -0.0000 0.0000 0.0000 61.9542 -3.4577 66.2919 -61.8929 56.7936 -35.9205 0.0000 -0.0000 -7.7733 -32.8416 -8.0498 5.1649 7.1250 -0.0000 -0.0000 -5.2300 -39.4833 -0.7133
0.00 0.00 0.00 -15.7067 -57.9770 19.2445 0.0000 0.0000 0.0000 -19.4790 -32.3826 -1.9897 0.7915 5.6791 15.8562 0.4701 3.3424 -14.6088 1.0928 -6.6434 -18.6630 0.0000 0.0000 0.0000 35.8107 5.9042 -1.5385 -0.0067 -0.5283 1.4516 0.5881 -24.1084 -30.1099 -11.4343 -18.1411 64.1840 0.9393 3.7769 4.8003 2.4869 5.3637 -10.6430 1.3261 2.5398 -14.5575 2.2369 -1.6306 -12.3643 4.7743 -6.7136 41.8924 0.4572 -2.1510 17.7667 -0.0000 -0.0000 0.0000 -70.4475 28.9601 11.4492 38.6695 -47.2615 -17.4556 -0.0000 -0.0000 10.2404 41.8555 19.1595 16.3842 -7.1250 0.0000 -0.0000 14.7111 54.3811 3.4477 -0.0000 -0.0000 0.0000 58.1949 -13.7193 50.6164 -41.6765 49.0324 -19.6959 0.0000 -0.0000 -4.2794 -32.1076 -6.3917 3.9959 7.1250 -0.0000 -0.0000 -4.5761 -37.4782 -0.8493
0.00 0.00 0.00 -28.9294 -75.1092 32.2397 0.0000 0.0000 0.0000 -19.9805 -30.9947 -3.7703 2.0972 9.0657 26.0011 -0.0103 -3.1317 -1.5898 0.1579 -2.5606 -7.0578 0.0000 0.0000 0.0000 36.4008 -0.9667 -3.5242 -0.1847 -2.7678 7.6329 1.4688 -20.9152 -9.7431 -1.5918 -7.9584 22.5878 2.9523 3.8098 4.9086 0.0201 5.2988 -10.4800 -2.4712 2.0994 -13.9483 6.1439 0.0212 -13.5405 4.1101 -4.9854 38.9537 -0.2944 -1.0657 16.2905 -0.0000 0.0000 0.0000 -68.8113 29.4965 15.5098 31.8072 -42.3929 -12.6106 -0.0000 -0.0000 11.5248 37.5467 18.6117 13.7830 -7.1250 0.0000 -0.0000 9.8356 52.7276 1.8850 -0.0000 0.0000 0.0000 52.1503 -17.7506 41.3706 -42.5970 49.5354 -20.3936 0.0000 -0.0000 -6.7731 -33.1083 -5.4610 3.5512 7.1250 -0.0000 -0.0000 -5.4082 -36.4451 -1.1418
0.00 0.00 0.00 -11.3877 -74.9863 37.2445 0.0000 0.0000 0.0000 -9.3478 -32.2254 -55.5093 9.3165 17.0071 57.1784 -1.8522 -28.5604 -7.2619 0.3232 -3.6543 -10.1062 0.0000 0.0000 0.0000 28.3663 20.3323 -45.4527 -5.1226 -13.5205 41.3495 -3.1977 -0.0658 -33.9590 -0.0006 0.1592 -0.4373 3.2641 2.1660 21.0956 5.8150 5.0580 -8.9850 2.9205 2.1607 -22.8234 -12.5048 -12.1096 -20.6702 6.4783 -14.3915 17.5603 1.9818 -6.7777 10.3827 0.0000 -0.0000 0.0000 -87.5829 27.7012 20.4504 31.9390 -42.4985 -12.6996 -0.0000 0.0000 -0.7682 40.4855 19.7338 16.0787 -7.1250 0.0000 -0.0000 13.1737 54.7446 3.1947 0.0000 -0.0000 0.0000 60.7611 8.0416 70.4895 -53.6910 54.3798 -29.1490 0.0000 0.0000 18.3003 -31.5865 -4.0089 2.4614 7.1250 -0.0000 -0.0000 -4.0961 -34.6603 -1.0419
0.00 0.00 0.00 -170.7190 -71.8466 193.9510 0.0000 0.0000 0.0000 -22.3839 -9.3224 -48.0785 8.6817 16.5985 54.9826 -1.4876 -33.1428 -15.5606 0.3892 -4.0060 -11.0937 0.0000 0.0000 0.0000 23.0785 32.2612 -44.3299 -6.9327 -15.2749 48.6192 -1.2721 10.0764 -20.3305 -0.0015 0.2498 -0.6864 -2.1351 -2.7710 21.5395 5.9300 -3.5870 -9.7463 9.7793 -0.5257 -23.2585 -14.8114 -12.6210 -21.6678 11.3312 -15.8494 19.7512 3.6991 -7.0136 12.2276 -0.0000 -0.0000 0.0000 -68.8723 -26.4764 30.0177 48.2726 -52.2746 -24.8012 -0.0000 -0.0000 9.3258 39.0820 19.9909 15.5175 -7.1250 0.0000 -0.0000 11.5691 54.7166 2.7893 -0.0000 -0.0000 0.0000 44.8362 -11.5088 46.5571 -104.0226 59.2438 -72.1131 0.0000 0.0000 9.1535 -29.1684 -7.5278 4.1822 7.1250 -0.0000 -0.0000 -2.0337 -38.5781 -0.3218
0.00 0.00 0.00 -175.4220 -52.1795 195.6810 0.0000 0.0000 0.0000 -27.6401 4.1676 -35.4212 5.0486 13.4383 41.0323 -0.2835 -27.8745 -18.0064 0.6536 -5.1710 -14.3970 0.0000 0.0000 0.0000 24.5336 31.6760 -32.9109 -4.2672 -12.5078 37.5527 0.3708 11.7306 -0.7810 -1.1292 -6.7495 18.9753 -5.0323 -5.1815 19.3189 6.0849 -8.1810 -11.7882 13.4121 -1.9962 -23.2981 -17.9098 -13.3968 -19.5278 13.2142 -17.3420 20.9733 4.6245 -7.8565 13.0604 0.0000 0.0000 0.0000 -57.4136 -33.9770 27.0545 80.9551 -59.6886 -52.1751 -0.0000 -0.0000 10.0385 37.9916 17.4994 13.2168 -7.1250 0.0000 -0.0000 10.3031 51.4964 1.6634 0.0000 0.0000 0.0000 33.7127 -19.0321 38.6419 -122.0290 55.7446 -87.3417 0.0000 0.0000 1.3892 -36.5912 -7.0416 5.2004 7.1250 -0.0000 -0.0000 -8.4715 -38.5957 -1.3478
0.00 0.00 0.00 -173.3200 19.2858 191.5800 0.0000 0.0000 0.0000 -30.0697 -2.8832 2.0384 0.2191 3.0132 8.3155 3.3744 -4.4032 -33.8255 0.7904 -5.6751 -15.8445 0.0000 0.0000 0.0000 32.6079 21.7665 3.1617 -0.1392 2.4047 -6.6255 6.4998 -40.1399 -13.3558 -0.0077 -0.5663 1.5563 -3.5575 -6.9025 7.0344 11.3108 -6.2990 -14.9147 16.6034 -0.1248 -19.1859 -21.5907 -16.5418 -13.8040 4.4017 -18.4956 35.3452 1.6828 -9.2393 18.1746 -0.0000 0.0000 0.0000 -68.0920 23.3011 31.6989 107.4729 -58.8144 -75.0718 -0.0000 -0.0000 17.2533 41.2855 19.1484 16.0676 -7.1250 0.0000 -0.0000 14.0499 54.2289 3.2353 -0.0000 0.0000 0.0000 48.4837 6.3433 64.0114 -61.6808 56.7414 -35.7431 0.0000 -0.0000 -2.9857 -36.2669 -2.8117 2.0612 7.1250 -0.0000 -0.0000 -7.8819 -33.3901 -2.2615
